<svg width="60" height="60" viewBox="0 0 60 60" fill="none" xmlns="http://www.w3.org/2000/svg">
<path d="M30 0C13.4314 0 0 13.4314 0 30C0 46.5686 13.4314 60 30 60C46.5686 60 60 46.5686 60 30C60 13.4314 46.5686 0 30 0ZM18.7593 50.3116H10.3255V23.1763H18.7593V50.3116ZM14.5442 19.467C11.841 19.467 9.65279 17.2757 9.65279 14.5762C9.6534 11.8791 11.841 9.68777 14.5442 9.68777C17.2401 9.68777 19.4314 11.8791 19.4314 14.5762C19.4314 17.2763 17.2395 19.467 14.5442 19.467ZM50.3466 50.3116H41.9196V37.1153C41.9196 33.9683 41.8613 29.9208 37.5358 29.9208C33.1495 29.9208 32.4749 33.3483 32.4749 36.8876V50.311H24.0485V23.1763H32.1373V26.8843H32.2508C33.3772 24.7507 36.1271 22.5017 40.2304 22.5017C48.7703 22.5017 50.3466 28.1217 50.3466 35.4279V50.3116Z" fill="black"/>
</svg>
